<?xml version="1.0" encoding="utf-8"?>
<!-- Generator: Adobe Illustrator 25.2.0, SVG Export Plug-In . SVG Version: 6.00 Build 0)  -->
<svg version="1.1" id="Layer_1" xmlns="http://www.w3.org/2000/svg" xmlns:xlink="http://www.w3.org/1999/xlink" x="0px" y="0px"
	 viewBox="0 0 220.5 194" style="enable-background:new 0 0 220.5 194;" xml:space="preserve">
<style type="text/css">
	.st0{fill:url(#SVGID_1_);}
	.st1{fill:url(#SVGID_2_);}
	.st2{fill:url(#SVGID_3_);}
	.st3{fill:url(#SVGID_4_);}
	.st4{fill:#232C3B;}
</style>
<g>
	<linearGradient id="SVGID_1_" gradientUnits="userSpaceOnUse" x1="26.6472" y1="10.372" x2="26.6472" y2="48.9165">
		<stop  offset="0" style="stop-color:#FF6C3A"/>
		<stop  offset="1" style="stop-color:#FF0042"/>
	</linearGradient>
	<polygon class="st0" points="47.6,12.1 26.6,24.2 12.2,15.8 26.6,7.4 34.7,12.1 41.1,8.4 26.6,0 2.5,13.9 2.5,17.6 23.4,29.8 
		23.4,46.5 8.9,38.1 8.9,28.8 2.5,25.1 2.5,41.8 26.6,55.8 29.9,53.9 29.9,29.8 44.3,21.4 44.3,38.1 36.3,42.8 36.3,50.2 50.8,41.8 
		50.8,13.9 	"/>
	<linearGradient id="SVGID_2_" gradientUnits="userSpaceOnUse" x1="29.1744" y1="23.8921" x2="41.7692" y2="17.134">
		<stop  offset="0" style="stop-color:#FFFFFF;stop-opacity:0"/>
		<stop  offset="1" style="stop-color:#FFFFFF;stop-opacity:0.4"/>
	</linearGradient>
	<polygon class="st1" points="30.3,24.7 49.4,13.7 47.6,12.6 28.5,23.6 	"/>
	<linearGradient id="SVGID_3_" gradientUnits="userSpaceOnUse" x1="32.5122" y1="5.7599" x2="32.5122" y2="8.9691">
		<stop  offset="0" style="stop-color:#FFFFFF;stop-opacity:0"/>
		<stop  offset="1" style="stop-color:#FFFFFF;stop-opacity:0.4"/>
	</linearGradient>
	<polygon class="st2" points="34.7,9.5 36.5,8.5 30.3,4.9 28.5,6 	"/>
	<linearGradient id="SVGID_4_" gradientUnits="userSpaceOnUse" x1="13.7953" y1="37.9731" x2="25.0845" y2="44.4241">
		<stop  offset="0" style="stop-color:#FFFFFF;stop-opacity:0"/>
		<stop  offset="1" style="stop-color:#FFFFFF;stop-opacity:0.4"/>
	</linearGradient>
	<polygon class="st3" points="6.6,39.5 6.6,26 3,23.9 3,39.5 26.6,53.2 28.5,52.2 	"/>
	<g>
		<path class="st4" d="M62,37.6h8.7c2.4,0,3.7-0.9,3.9-2.7c0-1-0.3-1.9-0.8-2.5c-0.6-0.7-1.4-1.3-2.5-1.8c-1.2-0.6-2.4-1.2-3.5-1.7
			c-1.1-0.5-2.1-1.1-2.9-1.7c-0.8-0.6-1.5-1.3-2-2.1c-0.5-0.8-0.7-1.8-0.7-2.9c0-1,0.2-1.9,0.6-2.7c0.4-0.8,0.9-1.4,1.5-1.9
			c0.6-0.5,1.3-0.9,2-1.1c0.7-0.3,1.5-0.4,2.2-0.4h8.5V19h-8.5c-0.9,0-1.6,0.3-2.1,0.8c-0.5,0.6-0.8,1.2-0.8,2.1
			c0.1,1,0.5,1.7,1.2,2.2c0.8,0.6,1.6,1,2.2,1.4c0.7,0.4,1.5,0.8,2.5,1.2c1,0.5,1.7,0.8,2.1,1.1c1.2,0.7,2.3,1.6,3.1,2.7
			s1.3,2.3,1.3,3.9c0,1-0.2,2-0.6,2.9c-0.4,1-1.2,1.8-2.2,2.4s-2.4,1-4.2,1h-9V37.6z"/>
		<path class="st4" d="M79.8,32c0-1.2,0.3-2.4,0.8-3.4c0.5-1.1,1.2-2,2-2.8s1.8-1.4,2.8-1.8s2.1-0.6,3.1-0.6c1.1,0,2.1,0.2,3.2,0.6
			c1.1,0.4,2,0.9,2.9,1.7s1.5,1.6,2.1,2.7c0.5,1.1,0.8,2.3,0.8,3.7c0,1.3-0.3,2.7-0.9,4.1c-0.6,1.4-1.6,2.5-2.8,3.4
			c-1.3,0.9-2.7,1.4-4.5,1.5c-1.9,0-3.5-0.4-4.9-1.2c-1.4-0.8-2.6-1.9-3.3-3.3s-1.2-2.8-1.2-4.4C79.8,32.1,79.8,32.1,79.8,32
			C79.8,32,79.8,32,79.8,32z M83.1,31.9c0,0.7,0.1,1.4,0.3,2.2c0.2,0.7,0.5,1.4,1,2s1,1.1,1.8,1.4c0.7,0.4,1.6,0.5,2.7,0.5
			c1.6,0,2.9-0.5,3.9-1.5c1-1,1.5-2.6,1.5-4.8c-0.1-1.6-0.6-3-1.6-3.9c-1-1-2.3-1.5-3.9-1.5c-1.2,0-2.2,0.3-3.1,0.9
			c-0.8,0.6-1.5,1.3-1.9,2.1C83.3,30.2,83.1,31,83.1,31.9z"/>
		<path class="st4" d="M100.4,40.7V22.1c0-2.2,0.6-3.7,1.8-4.7c1.2-1,2.4-1.5,3.8-1.5h3v3h-2.2c-2,0-3.1,0.9-3.3,2.8v2.1h5.1v3h-5.1
			v14H100.4z"/>
		<path class="st4" d="M110.4,35.4v-16h3.1v4.3h6.1v3h-6.1V36c0,0.5,0.2,0.9,0.6,1.2c0.4,0.3,0.9,0.5,1.7,0.5h3.8v3h-3.9
			c-1.8,0-3.1-0.5-4-1.5C110.8,38.2,110.4,36.9,110.4,35.4z"/>
		<path class="st4" d="M130.6,37.6h8.7c2.4,0,3.7-0.9,3.9-2.7c0-1-0.3-1.9-0.8-2.5c-0.6-0.7-1.4-1.3-2.5-1.8
			c-1.2-0.6-2.4-1.2-3.5-1.7s-2.1-1.1-2.9-1.7c-0.8-0.6-1.5-1.3-2-2.1c-0.5-0.8-0.7-1.8-0.7-2.9c0-1,0.2-1.9,0.6-2.7
			c0.4-0.8,0.9-1.4,1.5-1.9c0.6-0.5,1.3-0.9,2-1.1c0.7-0.3,1.5-0.4,2.2-0.4h8.5V19h-8.5c-0.9,0-1.6,0.3-2.1,0.8
			c-0.5,0.6-0.8,1.2-0.8,2.1c0.1,1,0.5,1.7,1.2,2.2c0.8,0.6,1.6,1,2.2,1.4c0.7,0.4,1.5,0.8,2.5,1.2c1,0.5,1.7,0.8,2.1,1.1
			c1.2,0.7,2.3,1.6,3.1,2.7c0.8,1,1.3,2.3,1.3,3.9c0,1-0.2,2-0.6,2.9c-0.4,1-1.2,1.8-2.2,2.4s-2.4,1-4.2,1h-9V37.6z"/>
		<path class="st4" d="M149.1,23.7h3.1v10.2c0,0.8,0.3,1.5,0.7,2.1c0.4,0.6,0.9,1.1,1.5,1.4c0.6,0.3,1.2,0.5,1.9,0.5
			c0.8,0,1.5-0.2,2.1-0.6c0.6-0.4,1.1-0.9,1.5-1.6c0.4-0.6,0.6-1.3,0.6-2V23.7h3.1v10.1c0,1-0.2,1.9-0.5,2.8
			c-0.4,0.9-0.9,1.7-1.5,2.3c-0.6,0.7-1.4,1.2-2.4,1.5s-1.9,0.6-2.9,0.6c-2-0.1-3.7-0.7-5.1-2s-2.1-3.1-2.1-5.7V23.7z"/>
		<path class="st4" d="M180.3,40.7v-9.8c-0.1-1.3-0.6-2.4-1.6-3.3c-1-0.9-2.3-1.3-4-1.3c-0.8,0-1.6,0.2-2.4,0.5
			c-0.8,0.4-1.6,1-2.2,1.8c-0.6,0.9-0.9,2-0.9,3.4c0,1.2,0.3,2.3,0.8,3.2s1.2,1.6,2.1,2.1c0.9,0.5,1.8,0.7,2.7,0.7
			c1.6,0,3.1-0.8,4.3-2.4v3.7c-0.9,0.6-1.7,1-2.2,1.2c-0.5,0.2-1.3,0.3-2.4,0.4c-1,0-2-0.2-3-0.6c-1-0.4-1.9-1-2.7-1.8
			c-0.8-0.8-1.5-1.8-1.9-2.9S166,33.4,166,32c0-1.2,0.2-2.3,0.6-3.4c0.4-1,0.9-2,1.7-2.8c0.8-0.8,1.7-1.4,2.8-1.9
			c1.1-0.4,2.4-0.7,3.8-0.7c1.8,0,3.3,0.4,4.6,1.1c1.3,0.7,2.3,1.7,2.9,2.9c0.6,1.2,1,2.5,1,3.8v9.5H180.3z"/>
		<path class="st4" d="M184.3,23.7h3.4l5,13.2l4.9-13.2h3.3l-5.9,15.7c-0.2,0.5-0.5,0.9-1,1.2c-0.4,0.3-0.9,0.4-1.4,0.4
			c-0.6,0-1.1-0.2-1.5-0.5s-0.8-0.8-0.9-1.3L184.3,23.7z"/>
		<path class="st4" d="M205.8,32.6l8.5-4.7c-0.4-0.5-0.9-0.9-1.5-1.2c-0.5-0.3-1.4-0.4-2.5-0.4c-0.8,0-1.6,0.2-2.2,0.5
			s-1.3,0.8-1.7,1.3c-0.5,0.6-0.8,1.2-1.1,2c-0.2,0.7-0.4,1.5-0.4,2.4c0.1,1,0.3,1.9,0.7,2.7c0.4,0.8,1.1,1.5,1.9,2
			c0.8,0.5,1.8,0.8,2.9,0.8c1.7,0,3-0.5,3.9-1.4c0.8-0.9,1.4-2.2,1.8-4l3.1,0.4c0,1.1-0.4,2.3-1.1,3.5c-0.7,1.2-1.7,2.3-3.1,3.1
			c-1.4,0.8-3,1.3-4.8,1.3c-1.5,0-2.9-0.4-4.2-1.2s-2.4-1.8-3.2-3.1c-0.8-1.3-1.2-2.7-1.2-4.2c0-2,0.4-3.7,1.3-5.1
			c0.9-1.4,2-2.4,3.3-3.1s2.7-1,4-1c1.3,0,2.4,0.2,3.5,0.6c1,0.4,1.9,1,2.7,1.8c0.8,0.8,1.5,1.8,2.1,3l-11.5,6.3L205.8,32.6z"/>
	</g>
	<g>
		<path class="st4" d="M158.4,47.7h-2l0.2-0.7h4.9l-0.2,0.7h-2l-1.2,5.6h-0.8L158.4,47.7z"/>
		<path class="st4" d="M162.2,46.8h0.8l-0.6,2.8c0.2-0.3,0.5-0.6,0.9-0.8c0.3-0.2,0.7-0.3,1-0.3c0.4,0,0.7,0.1,0.8,0.3
			c0.2,0.2,0.2,0.5,0.2,0.8c0,0.3,0,0.5-0.1,0.8l-0.6,2.8h-0.8l0.5-2.6c0-0.1,0-0.2,0.1-0.3c0-0.1,0-0.2,0-0.3
			c0-0.5-0.2-0.8-0.7-0.8c-0.1,0-0.3,0-0.4,0.1s-0.3,0.1-0.5,0.3c-0.1,0.1-0.3,0.2-0.4,0.4c-0.1,0.1-0.2,0.3-0.3,0.5l-0.6,2.8h-0.8
			L162.2,46.8z"/>
		<path class="st4" d="M167.8,53.3c-0.3,0-0.5,0-0.8-0.1c-0.2-0.1-0.4-0.2-0.6-0.4s-0.3-0.4-0.4-0.6c-0.1-0.2-0.1-0.5-0.1-0.8
			c0-0.4,0.1-0.7,0.2-1.1c0.1-0.3,0.3-0.6,0.6-0.9c0.3-0.3,0.6-0.5,0.9-0.6c0.3-0.2,0.7-0.2,1.1-0.2c0.5,0,0.8,0.1,1.1,0.3
			s0.4,0.5,0.4,0.9c0,0.5-0.2,0.8-0.6,1.1c-0.4,0.2-1,0.4-1.9,0.4c-0.1,0-0.3,0-0.5,0s-0.4,0-0.5,0c0,0,0,0.1,0,0.1s0,0.1,0,0.1
			c0,0.2,0,0.4,0.1,0.5c0,0.2,0.1,0.3,0.2,0.4c0.1,0.1,0.2,0.2,0.4,0.3c0.1,0.1,0.3,0.1,0.5,0.1c0.3,0,0.5-0.1,0.8-0.2
			c0.3-0.1,0.5-0.3,0.6-0.6l0.6,0.2c-0.1,0.2-0.2,0.3-0.4,0.5s-0.3,0.3-0.5,0.4c-0.2,0.1-0.4,0.2-0.6,0.2S168.1,53.3,167.8,53.3z
			 M168.8,49.1c-0.3,0-0.5,0-0.7,0.1c-0.2,0.1-0.4,0.2-0.5,0.3s-0.3,0.3-0.4,0.5c-0.1,0.2-0.2,0.4-0.2,0.6c0.2,0,0.3,0,0.5,0
			c0.2,0,0.3,0,0.4,0c0.3,0,0.6,0,0.8-0.1c0.2,0,0.4-0.1,0.6-0.2c0.1-0.1,0.2-0.2,0.3-0.3c0.1-0.1,0.1-0.2,0.1-0.4
			c0-0.2-0.1-0.4-0.2-0.5C169.2,49.2,169,49.1,168.8,49.1z"/>
		<path class="st4" d="M174.3,53.3c-0.4,0-0.7-0.1-1-0.2c-0.3-0.1-0.6-0.3-0.8-0.5l0.4-0.5c0.2,0.2,0.4,0.4,0.7,0.5
			c0.2,0.1,0.5,0.2,0.8,0.2c0.4,0,0.6-0.1,0.9-0.2c0.2-0.2,0.3-0.4,0.3-0.6c0-0.2-0.1-0.3-0.3-0.4c-0.2-0.1-0.4-0.2-0.8-0.3
			c-0.2-0.1-0.4-0.1-0.6-0.2s-0.3-0.1-0.4-0.2c-0.1-0.1-0.2-0.2-0.2-0.3c-0.1-0.1-0.1-0.2-0.1-0.3c0-0.3,0.1-0.5,0.2-0.7
			c0.1-0.2,0.3-0.4,0.4-0.5s0.4-0.2,0.6-0.3c0.2-0.1,0.5-0.1,0.8-0.1c0.3,0,0.6,0.1,0.9,0.2c0.3,0.1,0.5,0.3,0.6,0.4l-0.5,0.5
			c-0.2-0.2-0.3-0.3-0.5-0.4c-0.2-0.1-0.4-0.1-0.7-0.1c-0.2,0-0.3,0-0.4,0.1c-0.1,0-0.2,0.1-0.4,0.2c-0.1,0.1-0.2,0.2-0.2,0.3
			s-0.1,0.2-0.1,0.4c0,0.2,0.1,0.3,0.2,0.4c0.1,0.1,0.4,0.2,0.7,0.2c0.2,0.1,0.5,0.1,0.6,0.2c0.2,0.1,0.3,0.1,0.5,0.2
			c0.1,0.1,0.2,0.2,0.3,0.3c0.1,0.1,0.1,0.2,0.1,0.4c0,0.2-0.1,0.5-0.2,0.7c-0.1,0.2-0.2,0.4-0.4,0.5c-0.2,0.1-0.4,0.3-0.7,0.3
			C174.9,53.3,174.6,53.3,174.3,53.3z"/>
		<path class="st4" d="M178,48.6h0.7l-0.2,1c0.2-0.3,0.5-0.6,0.8-0.8c0.3-0.2,0.7-0.3,1-0.3c0.3,0,0.6,0.1,0.8,0.3s0.3,0.5,0.3,0.8
			c0.3-0.4,0.6-0.7,0.9-0.8c0.3-0.2,0.7-0.3,1-0.3c0.4,0,0.6,0.1,0.8,0.3c0.2,0.2,0.2,0.5,0.2,0.8c0,0.2,0,0.5-0.1,0.8l-0.6,2.8
			h-0.8l0.5-2.6c0.1-0.2,0.1-0.5,0.1-0.6c0-0.5-0.2-0.8-0.6-0.8c-0.1,0-0.3,0-0.4,0.1c-0.1,0.1-0.3,0.1-0.4,0.3
			c-0.1,0.1-0.3,0.2-0.4,0.4c-0.1,0.2-0.2,0.3-0.3,0.5l-0.6,2.8h-0.8l0.5-2.6c0.1-0.3,0.1-0.5,0.1-0.7c0-0.5-0.2-0.8-0.6-0.8
			c-0.3,0-0.6,0.1-0.9,0.3c-0.3,0.2-0.5,0.5-0.7,0.9l-0.6,2.8H177L178,48.6z"/>
		<path class="st4" d="M186.6,53.3c-0.3,0-0.5-0.1-0.7-0.2c-0.2-0.1-0.4-0.2-0.5-0.4s-0.2-0.4-0.3-0.6s-0.1-0.5-0.1-0.7
			c0-0.4,0.1-0.7,0.2-1.1s0.3-0.6,0.6-0.9s0.5-0.5,0.8-0.6c0.3-0.2,0.6-0.2,1-0.2c0.4,0,0.6,0.1,0.9,0.3c0.2,0.2,0.4,0.4,0.5,0.7
			l0.2-0.9h0.8l-0.8,3.7c0,0,0,0,0,0.1c0,0,0,0,0,0.1c0,0.1,0.1,0.2,0.2,0.2l-0.1,0.7c-0.1,0-0.1,0-0.2,0c0,0-0.1,0-0.1,0
			c-0.2,0-0.3,0-0.4-0.1c-0.1-0.1-0.1-0.2-0.1-0.3c0-0.1,0-0.3,0.1-0.5c-0.2,0.3-0.5,0.5-0.8,0.7C187.2,53.3,186.9,53.3,186.6,53.3z
			 M186.9,52.7c0.1,0,0.3,0,0.4-0.1c0.2-0.1,0.3-0.1,0.4-0.2c0.1-0.1,0.3-0.2,0.4-0.3c0.1-0.1,0.2-0.3,0.3-0.4l0.3-1.3
			c0-0.1-0.1-0.3-0.1-0.4c-0.1-0.1-0.2-0.2-0.3-0.3c-0.1-0.1-0.2-0.2-0.3-0.2c-0.1-0.1-0.3-0.1-0.4-0.1c-0.2,0-0.5,0.1-0.7,0.2
			c-0.2,0.1-0.4,0.3-0.6,0.5s-0.3,0.4-0.4,0.7c-0.1,0.2-0.1,0.5-0.1,0.7c0,0.2,0,0.4,0.1,0.5c0.1,0.2,0.1,0.3,0.2,0.4
			c0.1,0.1,0.2,0.2,0.4,0.3C186.6,52.6,186.8,52.7,186.9,52.7z"/>
		<path class="st4" d="M191.1,48.6h0.7l-0.2,1.1c0.2-0.3,0.5-0.6,0.8-0.8c0.3-0.2,0.6-0.3,0.9-0.3c0.1,0,0.1,0,0.1,0s0.1,0,0.1,0
			l-0.1,0.7c-0.4,0-0.7,0.1-1,0.3c-0.3,0.2-0.6,0.5-0.8,0.8l-0.6,2.8h-0.8L191.1,48.6z"/>
		<path class="st4" d="M194.5,53.3c-0.2,0-0.4-0.1-0.6-0.2c-0.2-0.1-0.2-0.3-0.2-0.5c0-0.1,0-0.2,0-0.3l0.7-3.1h-0.6l0.1-0.6h0.6
			l0.3-1.5h0.8l-0.3,1.5h1l-0.1,0.6h-1l-0.6,2.9c0,0.1,0,0.1,0,0.1c0,0.1,0,0.2,0.1,0.3c0.1,0.1,0.2,0.1,0.3,0.1
			c0.1,0,0.3,0,0.4-0.1c0.1,0,0.2-0.1,0.3-0.1l0,0.6c-0.1,0.1-0.3,0.1-0.5,0.2S194.7,53.3,194.5,53.3z"/>
		<path class="st4" d="M198.6,48.6h0.8l0.7,3.9c0.2-0.2,0.4-0.5,0.5-0.7c0.2-0.2,0.3-0.5,0.5-0.7l-0.6-2.5h0.8l0.4,1.5
			c0.2-0.5,0.4-1,0.6-1.5h0.7c-0.1,0.4-0.3,0.8-0.4,1.2s-0.4,0.8-0.6,1.2l0.4,1.5c0.5-0.7,0.9-1.3,1.2-2c0.3-0.7,0.6-1.3,0.8-2h0.7
			c-0.2,0.8-0.5,1.5-1,2.3c-0.4,0.8-0.9,1.5-1.5,2.3h-0.8l-0.3-1.3c-0.3,0.4-0.6,0.9-1,1.3h-0.8L198.6,48.6z"/>
		<path class="st4" d="M206.7,53.3c-0.3,0-0.5-0.1-0.7-0.2c-0.2-0.1-0.4-0.2-0.5-0.4s-0.2-0.4-0.3-0.6s-0.1-0.5-0.1-0.7
			c0-0.4,0.1-0.7,0.2-1.1s0.3-0.6,0.6-0.9s0.5-0.5,0.8-0.6c0.3-0.2,0.6-0.2,1-0.2c0.4,0,0.6,0.1,0.9,0.3c0.2,0.2,0.4,0.4,0.5,0.7
			l0.2-0.9h0.8l-0.8,3.7c0,0,0,0,0,0.1c0,0,0,0,0,0.1c0,0.1,0.1,0.2,0.2,0.2l-0.1,0.7c-0.1,0-0.1,0-0.2,0c0,0-0.1,0-0.1,0
			c-0.2,0-0.3,0-0.4-0.1c-0.1-0.1-0.1-0.2-0.1-0.3c0-0.1,0-0.3,0.1-0.5c-0.2,0.3-0.5,0.5-0.8,0.7C207.3,53.3,207,53.3,206.7,53.3z
			 M207,52.7c0.1,0,0.3,0,0.4-0.1c0.2-0.1,0.3-0.1,0.4-0.2c0.1-0.1,0.3-0.2,0.4-0.3c0.1-0.1,0.2-0.3,0.3-0.4l0.3-1.3
			c0-0.1-0.1-0.3-0.1-0.4c-0.1-0.1-0.2-0.2-0.3-0.3c-0.1-0.1-0.2-0.2-0.3-0.2c-0.1-0.1-0.3-0.1-0.4-0.1c-0.2,0-0.5,0.1-0.7,0.2
			c-0.2,0.1-0.4,0.3-0.6,0.5s-0.3,0.4-0.4,0.7c-0.1,0.2-0.1,0.5-0.1,0.7c0,0.2,0,0.4,0.1,0.5c0.1,0.2,0.1,0.3,0.2,0.4
			c0.1,0.1,0.2,0.2,0.4,0.3C206.7,52.6,206.9,52.7,207,52.7z"/>
		<path class="st4" d="M209.9,54.6c0.2,0,0.3-0.1,0.5-0.1c0.1,0,0.3-0.1,0.4-0.2s0.2-0.1,0.3-0.2c0.1-0.1,0.2-0.2,0.3-0.4l0.3-0.4
			l-0.9-4.7h0.8l0.6,3.9l0.3-0.5c0.2-0.4,0.5-0.8,0.6-1.1c0.2-0.3,0.3-0.6,0.4-0.8c0.1-0.3,0.2-0.5,0.3-0.7c0.1-0.2,0.2-0.5,0.2-0.8
			h0.8c-0.1,0.3-0.2,0.5-0.3,0.8c-0.1,0.2-0.2,0.5-0.3,0.8c-0.1,0.3-0.3,0.6-0.5,0.9c-0.2,0.3-0.4,0.7-0.7,1.2l-0.7,1.1
			c-0.2,0.3-0.4,0.6-0.6,0.8s-0.4,0.4-0.5,0.5c-0.2,0.1-0.4,0.2-0.5,0.3c-0.2,0.1-0.4,0.1-0.6,0.1L209.9,54.6z"/>
		<path class="st4" d="M214.4,53.2l0.2-1h0.7l-0.2,1H214.4z"/>
		<path class="st4" d="M216.2,53.2l0.2-1h0.7l-0.2,1H216.2z"/>
		<path class="st4" d="M218,53.2l0.2-1h0.7l-0.2,1H218z"/>
	</g>
</g>
</svg>
