<?xml version="1.0" encoding="iso-8859-1"?>
<!-- Generator: Adobe Illustrator 19.0.0, SVG Export Plug-In . SVG Version: 6.00 Build 0)  -->
<svg version="1.1" id="Layer_1" xmlns="http://www.w3.org/2000/svg" xmlns:xlink="http://www.w3.org/1999/xlink" x="0px" y="0px"
	 viewBox="0 0 512 512" style="enable-background:new 0 0 512 512;" xml:space="preserve">
<path style="fill:#002833;" d="M512,133.44v-32.8c0-17.28-14.08-31.36-31.36-31.36H31.36C14.08,69.36,0,83.44,0,100.72v32.8h512
	V133.44z"/>
<circle style="fill:#FF5F5F;" cx="44.16" cy="101.36" r="8.96"/>
<circle style="fill:#8AD5DD;" cx="70.96" cy="101.36" r="8.96"/>
<circle style="fill:#C9C9C9;" cx="97.76" cy="101.36" r="8.96"/>
<g>
	<path style="fill:#EFEFEF;" d="M432.32,117.04H186.8c-8.64,0-15.68-7.04-15.68-15.68l0,0c0-8.64,7.04-15.68,15.68-15.68h245.52
		c8.64,0,15.68,7.04,15.68,15.68l0,0C448,110,440.96,117.04,432.32,117.04z"/>
	<rect y="133.36" style="fill:#EFEFEF;" width="512" height="309.36"/>
</g>
<g>
	<path style="fill:#FF5F5F;" d="M99.12,250.4l9.92,38.24c2.16,8.4,4.16,16.16,5.6,23.92h0.48c1.68-7.6,4.16-15.68,6.64-23.76
		l12.32-38.4h11.52l11.68,37.6c2.8,9.04,4.96,16.96,6.72,24.56h0.48c1.2-7.6,3.28-15.52,5.76-24.4l10.72-37.76h13.52l-24.24,75.2
		h-12.4l-11.52-35.92c-2.64-8.4-4.8-15.84-6.72-24.72h-0.4c-1.84,9.04-4.16,16.8-6.8,24.88l-12.16,35.76h-12.4l-22.72-75.2
		L99.12,250.4L99.12,250.4z"/>
	<path style="fill:#FF5F5F;" d="M215.36,250.4l9.92,38.24c2.16,8.4,4.16,16.16,5.6,23.92h0.48c1.68-7.6,4.16-15.68,6.64-23.76
		l12.32-38.4h11.52l11.68,37.6c2.8,9.04,4.96,16.96,6.72,24.56h0.48c1.2-7.6,3.28-15.52,5.76-24.4l10.72-37.76h13.52l-24.24,75.2
		h-12.4l-11.52-35.92c-2.64-8.4-4.8-15.84-6.72-24.72h-0.32c-1.84,9.04-4.16,16.8-6.8,24.88l-12.16,35.76h-12.4l-22.72-75.2
		L215.36,250.4L215.36,250.4z"/>
	<path style="fill:#FF5F5F;" d="M331.6,250.4l9.92,38.24c2.16,8.4,4.16,16.16,5.6,23.92h0.48c1.68-7.6,4.16-15.68,6.64-23.76
		l12.32-38.4h11.52l11.68,37.6c2.8,9.04,4.96,16.96,6.72,24.56h0.48c1.2-7.6,3.28-15.52,5.76-24.4l10.72-37.76h13.52l-24.24,75.2
		h-12.4l-11.52-35.92c-2.64-8.4-4.8-15.84-6.72-24.72h-0.32c-1.84,9.04-4.16,16.8-6.8,24.88L352.8,325.6h-12.4l-22.72-75.2
		L331.6,250.4L331.6,250.4z"/>
</g>
<g>
</g>
<g>
</g>
<g>
</g>
<g>
</g>
<g>
</g>
<g>
</g>
<g>
</g>
<g>
</g>
<g>
</g>
<g>
</g>
<g>
</g>
<g>
</g>
<g>
</g>
<g>
</g>
<g>
</g>
</svg>
