<svg width="24" height="24" viewBox="0 0 24 24" fill="none" xmlns="http://www.w3.org/2000/svg">
<path d="M3.24443 6.07708C3.87183 5.63857 4.8176 5.72267 5.38092 6.18788L4.73483 5.24878C4.21489 4.50725 4.40111 3.70498 5.14331 3.18437C5.88551 2.66577 7.98863 4.06006 7.98863 4.06006C7.46402 3.31119 7.56213 2.36208 8.311 1.8368C9.05988 1.31352 10.0931 1.4944 10.6177 2.24461L17.5725 12.0694L16.6861 20.6628L9.28881 17.965L2.83662 8.39846C2.30733 7.64491 2.49021 6.6057 3.24443 6.07708Z" fill="#EF9645"/>
<path d="M1.79881 11.5428C1.79881 11.5428 1.04326 10.4415 2.14522 9.68665C3.24583 8.93177 4.00071 10.0324 4.00071 10.0324L7.50547 15.1437C7.62628 14.9421 7.75843 14.7432 7.90594 14.547L3.04159 7.45405C3.04159 7.45405 2.28671 6.35343 3.388 5.59855C4.48862 4.84367 5.2435 5.94429 5.2435 5.94429L9.81883 12.6167C9.98903 12.4779 10.1632 12.3384 10.3428 12.2016L5.03859 4.46523C5.03859 4.46523 4.28371 3.36461 5.38499 2.60973C6.48561 1.85485 7.24049 2.95547 7.24049 2.95547L12.5447 10.6905C12.7396 10.571 12.9325 10.4676 13.126 10.3581L8.16824 3.12834C8.16824 3.12834 7.41336 2.02772 8.51398 1.27284C9.6146 0.51796 10.3695 1.61858 10.3695 1.61858L15.6116 9.26349L16.4085 10.4262C13.106 12.6915 12.7916 16.9531 14.6785 19.705C15.0556 20.2556 15.6063 19.8785 15.6063 19.8785C13.3416 16.5754 14.0331 12.8637 17.3363 10.5991L16.3625 5.72537C16.3625 5.72537 15.9987 4.4412 17.2822 4.07678C18.5664 3.71302 18.9308 4.99718 18.9308 4.99718L20.0554 8.33708C20.5013 9.66129 20.9758 10.9808 21.6039 12.229C23.3773 15.7531 22.3181 20.1328 18.9742 22.4268C15.3266 24.9278 10.3401 23.998 7.83852 20.3511L1.79881 11.5428Z" fill="#FFDC5D"/>
<path d="M8.00937 21.3583C5.33959 21.3583 2.64178 18.6605 2.64178 15.9907C2.64178 15.6216 2.37146 15.3232 2.00236 15.3232C1.63327 15.3232 1.30688 15.6216 1.30688 15.9907C1.30688 19.9954 4.0047 22.6932 8.00937 22.6932C8.37847 22.6932 8.67682 22.3668 8.67682 21.9977C8.67682 21.6286 8.37847 21.3583 8.00937 21.3583Z" fill="#5DADEC"/>
<path d="M4.67212 22.6651C2.66978 22.6651 1.33489 21.3302 1.33489 19.3279C1.33489 18.9588 1.03654 18.6605 0.667445 18.6605C0.298348 18.6605 0 18.9588 0 19.3279C0 21.9977 2.00234 24 4.67212 24C5.04121 24 5.33956 23.7017 5.33956 23.3326C5.33956 22.9635 5.04121 22.6651 4.67212 22.6651ZM16.0187 1.30688C15.6503 1.30688 15.3512 1.6059 15.3512 1.97433C15.3512 2.34276 15.6503 2.64178 16.0187 2.64178C18.6885 2.64178 21.3582 5.03724 21.3582 7.98134C21.3582 8.34977 21.6573 8.64878 22.0257 8.64878C22.3941 8.64878 22.6931 8.34977 22.6931 7.98134C22.6931 4.30104 20.0234 1.30688 16.0187 1.30688Z" fill="#5DADEC"/>
<path d="M19.3559 0C18.9875 0 18.6885 0.270982 18.6885 0.639411C18.6885 1.00784 18.9875 1.33489 19.3559 1.33489C21.3583 1.33489 22.6651 2.81995 22.6651 4.64407C22.6651 5.0125 22.9915 5.31152 23.3606 5.31152C23.7297 5.31152 24 5.0125 24 4.64407C24 2.08309 22.0257 0 19.3559 0Z" fill="#5DADEC"/>
</svg>
